<svg width="93" height="100" viewBox="0 0 93 100" fill="none" xmlns="http://www.w3.org/2000/svg">
<path d="M64.3516 24.1212C61.1289 24.9219 56.8906 32.3829 53.4922 38.379C50.6406 43.379 48.8438 46.4844 47.4766 47.0899C47.1641 47.2266 46.8125 47.3048 46.4609 47.3048C44.3516 47.3048 41.6953 44.8438 38.707 42.0508C36.168 39.6876 33.5703 37.2462 31.207 36.2696C26.9492 34.5313 17.5156 43.1837 14.0781 46.836V49.2774C14.0781 53.0665 17.1641 56.1524 20.9336 56.1524H70.8945C74.6836 56.1524 77.75 53.0665 77.75 49.2774V34.1407C76.793 33.2227 71.0117 27.6563 65.8359 24.3555C65.3672 24.0626 64.8984 23.9844 64.3516 24.1212Z" fill="url(#paint0_linear_2_1454)"/>
<path d="M50.1523 28.2031C48.5703 31.0937 45.582 32.8906 42.3398 32.8906C37.418 32.8906 33.3945 28.8672 33.3945 23.9062C33.3945 18.9648 37.3984 14.9219 42.3398 14.9219C43.2578 14.9219 44.1953 15.0977 45.2109 15.4297L46.7148 15.9375L45.2305 16.543C43.043 17.4414 41.6367 19.5508 41.6367 21.8945C41.6367 25.7422 45.4258 28.7891 49.4102 27.3047L50.9141 26.7383L50.1523 28.2031Z" fill="url(#paint1_linear_2_1454)"/>
<path d="M81.5 0H11.1484C5.28906 0 0.503906 4.78516 0.503906 10.625V59.668C0.503906 65.5078 5.28906 70.293 11.1484 70.293H81.5C87.3594 70.293 92.1445 65.5078 92.1445 59.668V10.625C92.1445 4.78516 87.3594 0 81.5 0ZM84.3711 54.9219C84.3711 59.9414 80.4258 62.6953 75.4062 62.6953H17.5938C12.5742 62.6953 8.16016 59.9609 8.16016 54.9414V16.8164C8.16016 11.7969 12.2812 7.85156 17.3008 7.85156H75.1133C80.1328 7.85156 84.3711 11.7773 84.3711 16.7969V54.9219Z" fill="url(#paint2_linear_2_1454)"/>
<path d="M36.0898 72.6758C36.2266 78.2031 40.6797 82.6563 46.1875 82.6563C51.6953 82.6563 56.168 78.2031 56.2852 72.6758H36.0898Z" fill="url(#paint3_linear_2_1454)"/>
<path d="M59.0781 99.6875L57.7891 99.9805C56.6953 100.234 55.5039 99.5508 55.1719 98.457L48.6875 77.5391C48.2969 76.2695 49.0195 74.9805 50.3086 74.6875L51.5977 74.3945C52.6914 74.1406 53.8828 74.8242 54.2148 75.918L60.6992 96.8555C61.1094 98.1055 60.3672 99.3945 59.0781 99.6875Z" fill="url(#paint4_linear_2_1454)"/>
<path d="M33.5706 99.6875L34.8596 99.9805C35.9534 100.234 37.1448 99.5508 37.4768 98.457L43.9807 77.5391C44.3713 76.2695 43.6487 74.9805 42.3596 74.6875L41.0706 74.3945C39.9768 74.1406 38.7854 74.8242 38.4534 75.918L31.969 96.8555C31.5588 98.1055 32.2815 99.3945 33.5706 99.6875Z" fill="url(#paint5_linear_2_1454)"/>
<defs>
<linearGradient id="paint0_linear_2_1454" x1="-6.38784" y1="24.0559" x2="81.6173" y2="50.5076" gradientUnits="userSpaceOnUse">
<stop stop-color="#FFAC30"/>
<stop offset="1" stop-color="#FD01A7"/>
</linearGradient>
<linearGradient id="paint1_linear_2_1454" x1="27.7633" y1="14.9219" x2="53.6019" y2="18.739" gradientUnits="userSpaceOnUse">
<stop stop-color="#FFAC30"/>
<stop offset="1" stop-color="#FD01A7"/>
</linearGradient>
<linearGradient id="paint2_linear_2_1454" x1="-28.952" y1="2.30716e-06" x2="103.967" y2="26.2555" gradientUnits="userSpaceOnUse">
<stop stop-color="#FFAC30"/>
<stop offset="1" stop-color="#FD01A7"/>
</linearGradient>
<linearGradient id="paint3_linear_2_1454" x1="29.5985" y1="72.6758" x2="57.4185" y2="81.2051" gradientUnits="userSpaceOnUse">
<stop stop-color="#FFAC30"/>
<stop offset="1" stop-color="#FD01A7"/>
</linearGradient>
<linearGradient id="paint4_linear_2_1454" x1="44.6502" y1="74.3416" x2="62.9871" y2="75.6642" gradientUnits="userSpaceOnUse">
<stop stop-color="#FFAC30"/>
<stop offset="1" stop-color="#FD01A7"/>
</linearGradient>
<linearGradient id="paint5_linear_2_1454" x1="27.9221" y1="74.3416" x2="46.2617" y2="75.6646" gradientUnits="userSpaceOnUse">
<stop stop-color="#FFAC30"/>
<stop offset="1" stop-color="#FD01A7"/>
</linearGradient>
</defs>
</svg>
