<svg width="74" height="87" viewBox="0 0 74 87" fill="none" xmlns="http://www.w3.org/2000/svg">
<path d="M24.6433 61.9213C25.6089 61.2905 26.4818 61.0754 27.0817 61.0094C26.0054 59.3276 25.3576 57.17 25.3576 54.82C25.3576 49.4645 28.7196 45.1078 32.8524 45.1078C36.9851 45.1078 40.3465 49.4645 40.3465 54.82C40.3465 57.1704 39.6987 59.3279 38.6225 61.0097C39.2278 61.0765 40.0991 61.2926 41.0674 61.9255C42.3737 62.7713 43.5622 64.1982 44.5027 66.0481C44.9887 67.0101 45.4171 68.0954 45.7956 69.293H47.393C47.5006 69.1203 47.6064 68.942 47.7167 68.7756C50.0875 65.1779 52.4414 64.1643 53.3394 63.8948C52.8816 63.3392 52.476 62.7042 52.1354 61.9954C51.1161 59.8729 50.7967 57.3636 51.2341 54.9288C51.9999 50.6678 54.8904 47.6923 58.262 47.6923C58.8125 47.6923 59.3649 47.7742 59.904 47.9378C59.922 47.9434 59.9397 47.9505 59.9577 47.9561V39.9797H4.36035V69.293H19.8993C21.2919 64.8374 23.2416 62.8222 24.6433 61.9213Z" fill="url(#paint0_linear_2_1471)"/>
<path d="M65.6814 38.2138V36.4479V26.9123H57.3009V22.6488C58.3384 22.475 59.1405 21.3286 59.1405 19.9371C59.1405 18.4256 58.1951 17.2001 57.0283 17.2001C55.8622 17.2001 54.9162 18.4256 54.9162 19.9371C54.9162 21.3286 55.7183 22.4754 56.7558 22.6488V26.9123H52.1227V22.6488C53.1602 22.475 53.9623 21.3286 53.9623 19.9371C53.9623 18.4256 53.0169 17.2001 51.8501 17.2001C50.684 17.2001 49.738 18.4256 49.738 19.9371C49.738 21.3286 50.5401 22.4754 51.5776 22.6488V26.9123H47.1756V2.54341H45.5856V0.733398H38.6812V2.54341H37.0918V26.9123H35.3655V2.54341H33.7756V0.733398H26.8711V2.54341H25.2817V26.9123H23.5555V2.54341H21.9655V0.733398H15.0613V2.54341H13.4713V26.9123H9.47052V22.6488C10.5081 22.475 11.3101 21.3286 11.3101 19.9371C11.3101 18.4256 10.3647 17.2001 9.19799 17.2001C8.03181 17.2001 7.08583 18.4256 7.08583 19.9371C7.08583 21.3286 7.88791 22.4754 8.92545 22.6488V26.9123H0.5V36.4479V38.2138H65.6814ZM38.6812 5.72196H45.5856V7.37021H38.6812V5.72196ZM38.6812 8.9888H45.5856V10.6371H38.6812V8.9888ZM38.6812 12.2556H45.5856V13.9042H38.6812V12.2556ZM38.6812 15.5228H45.5856V17.1711H38.6812V15.5228ZM38.6812 18.7897H45.5856V20.4379H38.6812V18.7897ZM38.6812 23.6603H45.5856V26.9123H38.6812V23.6603ZM26.8711 5.72196H33.7756V7.37021H26.8711V5.72196ZM26.8711 8.9888H33.7756V10.6371H26.8711V8.9888ZM26.8711 12.2556H33.7756V13.9042H26.8711V12.2556ZM26.8711 15.5228H33.7756V17.1711H26.8711V15.5228ZM26.8711 18.7897H33.7756V20.4379H26.8711V18.7897ZM26.8711 23.6603H33.7756V26.9123H26.8711V23.6603ZM15.0613 5.72196H21.9652V7.37021H15.0613V5.72196ZM15.0613 8.9888H21.9652V10.6371H15.0613V8.9888ZM15.0613 12.2556H21.9652V13.9042H15.0613V12.2556ZM15.0613 15.5228H21.9652V17.1711H15.0613V15.5228ZM15.0613 18.7897H21.9652V20.4379H15.0613V18.7897ZM15.0613 23.6603H21.9652V26.9123H15.0613V23.6603Z" fill="url(#paint1_linear_2_1471)"/>
<path d="M30.346 62.0717H35.3582C37.4949 60.8296 38.9843 58.0508 38.9843 54.8197C38.9843 50.4308 36.2394 46.8733 32.8523 46.8733C29.4657 46.8733 26.7202 50.4308 26.7202 54.8197C26.7202 58.0512 28.2096 60.8299 30.346 62.0717Z" fill="url(#paint2_linear_2_1471)"/>
<path d="M56.4211 64.2552C57.0008 64.1719 57.6268 64.1143 58.2656 64.1115C58.9066 64.1143 59.534 64.1719 60.1147 64.2559C61.9827 63.4486 63.4934 61.4408 63.9722 58.7733C64.7056 54.6899 62.7464 50.609 59.5956 49.6576C56.4442 48.7072 53.2954 51.2468 52.5611 55.3299C51.8684 59.1847 53.5772 63.0364 56.4211 64.2552Z" fill="url(#paint3_linear_2_1471)"/>
<path d="M45.8316 75.986C45.2743 71.9037 44.3997 69.0677 43.3649 67.019C42.4696 65.2577 41.422 64.1286 40.4547 63.5024C39.4875 62.8706 38.6391 62.7452 38.1556 62.7477C37.9809 62.7477 37.8485 62.7629 37.7623 62.7773H27.9437C27.8581 62.7636 27.7248 62.7473 27.5488 62.7473C27.0656 62.7456 26.2164 62.8713 25.2497 63.5028C23.7837 64.4447 22.2033 66.5054 21.0979 70.1565C19.9843 73.803 19.2354 79.0685 19.2236 87H23.5837C23.5842 78.5264 24.5408 73.7546 25.4819 71.2602V87H40.2239V71.2764C40.3852 71.7059 40.5479 72.1982 40.7087 72.7728C41.4727 75.5152 42.1145 80.0065 42.1199 86.9997H46.7866C48.0135 79.7829 49.7398 75.6275 51.2079 73.2768L49.1505 86.9997H67.3837L65.3275 73.286C65.3705 73.3549 65.4133 73.4184 65.4569 73.4905C66.8951 75.8726 68.5576 79.9956 69.7477 86.9997H73.3689C71.9855 78.2565 69.8521 73.0504 67.783 69.9252C65.4842 66.4373 63.2717 65.6818 62.6809 65.5593C62.1731 65.3965 60.3016 64.8261 58.2671 64.8176C56.2321 64.8258 54.3606 65.3965 53.8529 65.5593C53.262 65.6822 51.0504 66.4373 48.7513 69.9252C47.7628 71.4181 46.7604 73.3866 45.8316 75.986Z" fill="url(#paint4_linear_2_1471)"/>
<defs>
<linearGradient id="paint0_linear_2_1471" x1="-13.5102" y1="39.9797" x2="63.8853" y2="62.2211" gradientUnits="userSpaceOnUse">
<stop stop-color="#FFAC30"/>
<stop offset="1" stop-color="#FD01A7"/>
</linearGradient>
<linearGradient id="paint1_linear_2_1471" x1="-20.4512" y1="0.7334" x2="71.402" y2="24.9364" gradientUnits="userSpaceOnUse">
<stop stop-color="#FFAC30"/>
<stop offset="1" stop-color="#FD01A7"/>
</linearGradient>
<linearGradient id="paint2_linear_2_1471" x1="22.7782" y1="46.8733" x2="40.9884" y2="49.0997" gradientUnits="userSpaceOnUse">
<stop stop-color="#FFAC30"/>
<stop offset="1" stop-color="#FD01A7"/>
</linearGradient>
<linearGradient id="paint3_linear_2_1471" x1="48.6405" y1="49.4583" x2="66.0505" y2="51.5473" gradientUnits="userSpaceOnUse">
<stop stop-color="#FFAC30"/>
<stop offset="1" stop-color="#FD01A7"/>
</linearGradient>
<linearGradient id="paint4_linear_2_1471" x1="1.81979" y1="62.7473" x2="75.0405" y2="87.5153" gradientUnits="userSpaceOnUse">
<stop stop-color="#FFAC30"/>
<stop offset="1" stop-color="#FD01A7"/>
</linearGradient>
</defs>
</svg>
